<?xml version="1.0" encoding="UTF-8" standalone="no"?><!DOCTYPE svg PUBLIC "-//W3C//DTD SVG 1.1//EN" "http://www.w3.org/Graphics/SVG/1.1/DTD/svg11.dtd"><svg width="100%" height="100%" viewBox="0 0 342 163" version="1.1" xmlns="http://www.w3.org/2000/svg" xmlns:xlink="http://www.w3.org/1999/xlink" xml:space="preserve" style="fill-rule:evenodd;clip-rule:evenodd;stroke-miterlimit:10;"><rect id="Artboard1" x="0" y="0" width="341.6" height="162.164" style="fill:none;"/><g><path d="M204.269,24.745c-4.201,-4.201 -11.012,-4.201 -15.214,0c-4.201,4.201 -4.201,11.013 0,15.214c4.202,4.201 11.013,4.201 15.214,0c4.202,-4.201 4.202,-11.013 0,-15.214" style="fill:#020000;fill-rule:nonzero;"/><path d="M138.164,24.745c4.201,-4.201 11.013,-4.201 15.214,0c4.201,4.201 4.201,11.013 0,15.214c-4.201,4.201 -11.013,4.201 -15.214,0c-4.201,-4.201 -4.201,-11.013 0,-15.214" style="fill:#020000;fill-rule:nonzero;"/><path d="M171.217,25.958c28.288,0 44.004,36.724 33.876,51.069c-10.128,14.346 -33.876,14.633 -33.876,14.633c0,0 -23.749,-0.287 -33.877,-14.633c-10.128,-14.345 5.588,-51.069 33.877,-51.069" style="fill:#fefefe;fill-rule:nonzero;"/><path d="M171.217,25.958c0,0.075 -0.767,0.18 -2.212,0.31c-0.363,0.018 -0.763,0.1 -1.205,0.169c-0.442,0.07 -0.925,0.146 -1.447,0.228c-0.521,0.085 -1.071,0.244 -1.665,0.374c-0.296,0.069 -0.602,0.14 -0.916,0.213c-0.312,0.086 -0.628,0.195 -0.955,0.295c-2.62,0.783 -5.732,2.105 -8.956,4.264c-1.629,1.052 -3.236,2.373 -4.857,3.853c-1.607,1.5 -3.161,3.235 -4.665,5.155c-2.946,3.88 -5.604,8.607 -7.339,14.063c-0.86,2.723 -1.48,5.63 -1.686,8.641c-0.033,0.753 -0.104,1.511 -0.07,2.272c0.005,0.381 0.01,0.763 0.015,1.146c0.033,0.381 0.065,0.762 0.098,1.145c0.037,0.771 0.211,1.521 0.324,2.287c0.071,0.38 0.185,0.749 0.275,1.126l0.143,0.563c0.046,0.189 0.125,0.365 0.186,0.549c0.13,0.364 0.261,0.729 0.392,1.096c0.167,0.348 0.335,0.697 0.503,1.047c0.15,0.361 0.372,0.678 0.576,1.008c0.212,0.326 0.391,0.664 0.654,0.979c0.936,1.31 2.067,2.498 3.281,3.617c0.602,0.566 1.26,1.078 1.914,1.6c0.341,0.244 0.682,0.49 1.024,0.736c0.34,0.249 0.706,0.465 1.059,0.7c1.433,0.91 2.952,1.726 4.534,2.451c3.172,1.438 6.586,2.517 10.123,3.302c1.769,0.39 3.569,0.711 5.393,0.952c0.911,0.122 1.828,0.221 2.748,0.304c0.46,0.04 0.921,0.075 1.381,0.104c0.451,0.029 0.945,0.051 1.35,0.06c0.405,-0.009 0.899,-0.031 1.349,-0.06c0.461,-0.029 0.921,-0.064 1.381,-0.104c0.921,-0.083 1.837,-0.182 2.749,-0.304c1.823,-0.241 3.624,-0.562 5.393,-0.952c3.536,-0.785 6.951,-1.864 10.122,-3.302c1.582,-0.725 3.101,-1.541 4.535,-2.451c0.352,-0.235 0.718,-0.451 1.058,-0.7c0.342,-0.246 0.684,-0.492 1.024,-0.737c0.654,-0.521 1.312,-1.033 1.915,-1.599c1.213,-1.119 2.345,-2.307 3.281,-3.618c0.262,-0.314 0.441,-0.652 0.653,-0.978c0.204,-0.33 0.426,-0.647 0.576,-1.008c0.168,-0.35 0.336,-0.699 0.503,-1.047c0.131,-0.367 0.262,-0.732 0.392,-1.096c0.061,-0.184 0.141,-0.36 0.187,-0.549l0.143,-0.563c0.089,-0.377 0.203,-0.746 0.275,-1.126c0.112,-0.766 0.286,-1.516 0.323,-2.287c0.033,-0.383 0.065,-0.765 0.098,-1.145c0.005,-0.383 0.011,-0.765 0.015,-1.146c0.035,-0.761 -0.036,-1.519 -0.069,-2.272c-0.207,-3.011 -0.827,-5.918 -1.686,-8.641c-1.736,-5.456 -4.394,-10.183 -7.34,-14.063c-1.504,-1.92 -3.057,-3.655 -4.664,-5.155c-1.621,-1.48 -3.229,-2.801 -4.858,-3.853c-3.224,-2.159 -6.336,-3.481 -8.956,-4.264c-0.327,-0.1 -0.643,-0.209 -0.954,-0.295c-0.315,-0.073 -0.621,-0.144 -0.917,-0.213c-0.593,-0.13 -1.143,-0.289 -1.665,-0.373c-0.522,-0.083 -1.004,-0.159 -1.447,-0.229c-0.442,-0.069 -0.842,-0.151 -1.204,-0.169c-1.446,-0.13 -2.212,-0.235 -2.212,-0.31c0,-0.075 0.767,-0.118 2.242,-0.13c0.37,-0.016 0.779,0.031 1.233,0.066c0.455,0.04 0.951,0.083 1.488,0.13c0.538,0.052 1.106,0.18 1.721,0.28c0.307,0.055 0.624,0.111 0.951,0.169c0.323,0.072 0.651,0.168 0.992,0.254c2.726,0.678 5.991,1.924 9.391,4.059c1.717,1.039 3.417,2.359 5.132,3.852c1.7,1.512 3.347,3.271 4.943,5.228c3.129,3.955 5.963,8.8 7.848,14.459c0.933,2.828 1.623,5.861 1.877,9.054c0.045,0.799 0.126,1.603 0.1,2.42c-0.002,0.408 -0.004,0.817 -0.005,1.228c-0.031,0.411 -0.062,0.823 -0.093,1.237c-0.034,0.83 -0.211,1.658 -0.33,2.494c-0.075,0.417 -0.195,0.829 -0.291,1.245l-0.155,0.625c-0.05,0.209 -0.135,0.41 -0.202,0.616c-0.144,0.409 -0.287,0.82 -0.431,1.232c-0.187,0.398 -0.374,0.797 -0.562,1.197c-0.17,0.409 -0.419,0.781 -0.652,1.164c-0.239,0.376 -0.459,0.779 -0.734,1.114c-1.01,1.434 -2.227,2.731 -3.529,3.946c-0.647,0.614 -1.349,1.169 -2.049,1.732c-0.363,0.264 -0.726,0.529 -1.09,0.794c-0.363,0.268 -0.75,0.5 -1.125,0.753c-1.521,0.976 -3.124,1.846 -4.785,2.615c-3.33,1.526 -6.881,2.657 -10.542,3.478c-1.831,0.408 -3.692,0.742 -5.576,0.992c-0.942,0.127 -1.891,0.231 -2.845,0.317c-0.478,0.042 -0.957,0.079 -1.439,0.109c-0.491,0.03 -0.942,0.053 -1.483,0.065c-0.541,-0.012 -0.992,-0.035 -1.484,-0.065c-0.482,-0.03 -0.961,-0.067 -1.438,-0.109c-0.955,-0.086 -1.903,-0.19 -2.846,-0.317c-1.884,-0.25 -3.744,-0.584 -5.576,-0.992c-3.661,-0.821 -7.212,-1.952 -10.542,-3.478c-1.661,-0.769 -3.264,-1.639 -4.785,-2.615c-0.375,-0.253 -0.761,-0.485 -1.124,-0.753c-0.364,-0.265 -0.728,-0.53 -1.09,-0.794c-0.701,-0.563 -1.402,-1.118 -2.049,-1.732c-1.302,-1.215 -2.519,-2.512 -3.53,-3.946c-0.274,-0.335 -0.495,-0.738 -0.733,-1.114c-0.234,-0.382 -0.482,-0.755 -0.653,-1.164c-0.188,-0.4 -0.375,-0.799 -0.561,-1.197c-0.144,-0.412 -0.288,-0.823 -0.431,-1.232c-0.067,-0.206 -0.153,-0.407 -0.203,-0.616l-0.154,-0.625c-0.097,-0.416 -0.217,-0.828 -0.291,-1.245c-0.119,-0.836 -0.297,-1.664 -0.331,-2.494c-0.031,-0.414 -0.062,-0.826 -0.093,-1.237c-0.001,-0.411 -0.003,-0.82 -0.005,-1.228c-0.026,-0.817 0.055,-1.621 0.1,-2.42c0.255,-3.193 0.944,-6.226 1.877,-9.054c1.886,-5.659 4.719,-10.504 7.848,-14.459c1.596,-1.957 3.243,-3.716 4.943,-5.228c1.715,-1.493 3.415,-2.813 5.132,-3.852c3.4,-2.135 6.665,-3.381 9.391,-4.059c0.341,-0.086 0.669,-0.182 0.993,-0.254c0.326,-0.058 0.643,-0.114 0.95,-0.169c0.615,-0.1 1.183,-0.228 1.721,-0.28c0.537,-0.047 1.033,-0.09 1.488,-0.13c0.454,-0.035 0.863,-0.082 1.233,-0.066c1.475,0.012 2.243,0.055 2.243,0.13" style="fill:#020000;fill-rule:nonzero;"/><path d="M171.037,76.58c0.115,0 0.22,0.781 0.295,2.044c0.037,0.631 0.068,1.383 0.089,2.218c0.008,0.424 0.016,0.861 0.025,1.31c0.001,0.228 0.004,0.459 0.006,0.693l0.001,0.135l0.001,0.001l0.169,0.21c0.572,0.681 1.305,1.077 2.033,1.118c0.732,0.051 1.417,-0.195 1.957,-0.447c1.088,-0.532 1.675,-1.069 1.761,-0.978c0.078,0.066 -0.362,0.769 -1.476,1.494c-0.558,0.343 -1.32,0.71 -2.272,0.698c-0.471,-0.008 -0.973,-0.126 -1.43,-0.364c-0.459,-0.235 -0.864,-0.581 -1.204,-0.975c-0.093,-0.118 -0.187,-0.235 -0.279,-0.351c-0.028,-0.049 -0.092,-0.087 -0.092,-0.146l0.001,-0.177l0,-0.218c0.002,-0.234 0.005,-0.465 0.007,-0.693c0.008,-0.449 0.016,-0.886 0.024,-1.31c0.021,-0.835 0.052,-1.587 0.089,-2.218c0.076,-1.263 0.18,-2.044 0.295,-2.044" style="fill:#020000;fill-rule:nonzero;"/><path d="M171.037,76.58c0.116,0 0.22,0.785 0.296,2.054c0.038,0.634 0.069,1.39 0.09,2.228c0.008,0.427 0.016,0.865 0.024,1.317c0.003,0.229 0.004,0.461 0.007,0.696l0.001,0.245c-0.009,0.057 0.019,0.126 -0.02,0.172l-0.106,0.14l-0.137,0.179c-0.041,0.051 -0.075,0.105 -0.122,0.153c-0.334,0.4 -0.736,0.753 -1.195,0.996c-0.457,0.245 -0.963,0.369 -1.438,0.377c-0.962,0.009 -1.725,-0.373 -2.279,-0.727c-1.108,-0.747 -1.537,-1.461 -1.458,-1.526c0.088,-0.09 0.669,0.46 1.753,1.012c0.537,0.262 1.222,0.519 1.954,0.47c0.728,-0.041 1.458,-0.449 2.024,-1.143c0.038,-0.039 0.069,-0.087 0.104,-0.13l0.082,-0.107c0.003,-0.004 0.002,-0.002 0.002,-0.002c0.001,-0.009 0.001,0.02 0.001,-0.021l0,-0.088c0.003,-0.235 0.004,-0.467 0.007,-0.696c0.008,-0.452 0.016,-0.89 0.024,-1.317c0.021,-0.838 0.052,-1.594 0.09,-2.228c0.076,-1.269 0.181,-2.054 0.296,-2.054" style="fill:#020000;fill-rule:nonzero;"/><path d="M171.037,71.024c-3.152,0 -5.708,1.851 -5.708,4.133c0,2.283 2.556,4.134 5.708,4.134c3.152,0 5.708,-1.851 5.708,-4.134c0,-2.282 -2.556,-4.133 -5.708,-4.133" style="fill:#020000;fill-rule:nonzero;"/><path d="M195.265,67.039c0,-4.594 -3.724,-8.318 -8.318,-8.318c-4.594,0 -8.318,3.724 -8.318,8.318c0,4.594 3.724,8.319 8.318,8.319c4.594,0 8.318,-3.725 8.318,-8.319" style="fill:#020000;fill-rule:nonzero;"/><path d="M187.251,63.03c0,-1.426 -1.156,-2.582 -2.581,-2.582c-1.426,0 -2.582,1.156 -2.582,2.582c0,1.426 1.156,2.581 2.582,2.581c1.425,0 2.581,-1.155 2.581,-2.581" style="fill:#fefefe;fill-rule:nonzero;"/><path d="M147.168,67.039c0,-4.594 3.724,-8.318 8.318,-8.318c4.594,0 8.318,3.724 8.318,8.318c0,4.594 -3.724,8.319 -8.318,8.319c-4.594,0 -8.318,-3.725 -8.318,-8.319" style="fill:#020000;fill-rule:nonzero;"/><path d="M155.182,63.03c0,-1.426 1.156,-2.582 2.581,-2.582c1.426,0 2.582,1.156 2.582,2.582c0,1.426 -1.156,2.581 -2.582,2.581c-1.425,0 -2.581,-1.155 -2.581,-2.581" style="fill:#fefefe;fill-rule:nonzero;"/></g><g><path d="M29.28,110.1c-0.161,-1.645 -0.758,-2.871 -1.79,-3.677c-1.032,-0.806 -2.58,-1.209 -4.645,-1.209c-3.806,0 -5.709,1.306 -5.709,3.918c0,0.936 0.395,1.718 1.186,2.347c0.79,0.629 2.056,1.153 3.798,1.572c2.064,0.484 3.854,0.936 5.37,1.355c1.516,0.419 2.903,0.903 4.161,1.451c0.709,0.291 1.379,0.654 2.007,1.089c0.629,0.435 1.162,0.976 1.597,1.621c0.435,0.645 0.782,1.419 1.04,2.322c0.258,0.903 0.387,2 0.387,3.29c0,1.548 -0.322,2.919 -0.967,4.112c-0.645,1.194 -1.516,2.202 -2.613,3.024c-1.097,0.823 -2.387,1.452 -3.87,1.887c-1.484,0.435 -3.048,0.653 -4.693,0.653c-4.677,0 -8.193,-0.903 -10.547,-2.709c-2.355,-1.806 -3.597,-4.483 -3.726,-8.031l6.483,0c0.033,1.645 0.702,2.943 2.008,3.894c1.306,0.952 2.943,1.428 4.911,1.428c2.129,0 3.741,-0.388 4.838,-1.162c1.097,-0.774 1.645,-1.822 1.645,-3.144c0,-0.516 -0.065,-0.992 -0.194,-1.428c-0.129,-0.435 -0.379,-0.83 -0.75,-1.185c-0.37,-0.355 -0.878,-0.669 -1.524,-0.943c-0.645,-0.275 -1.483,-0.525 -2.515,-0.75c-2.452,-0.516 -4.572,-1.041 -6.363,-1.573c-1.79,-0.532 -3.265,-1.193 -4.426,-1.983c-1.162,-0.791 -2.016,-1.75 -2.565,-2.879c-0.548,-1.129 -0.822,-2.564 -0.822,-4.306c0,-1.322 0.242,-2.564 0.726,-3.725c0.483,-1.161 1.225,-2.169 2.225,-3.024c1,-0.855 2.234,-1.532 3.701,-2.032c1.468,-0.5 3.202,-0.75 5.201,-0.75c1.936,0 3.677,0.25 5.225,0.75c1.549,0.5 2.879,1.209 3.992,2.129c1.113,0.919 1.975,2.032 2.588,3.338c0.613,1.306 0.952,2.75 1.016,4.33l-6.386,0Z" style="fill:#020000;fill-rule:nonzero;"/><path d="M53.471,132.742l0,-14.756c0,-1.806 -0.315,-3.04 -0.944,-3.701c-0.629,-0.661 -1.669,-0.992 -3.12,-0.992c-0.775,0 -1.468,0.153 -2.081,0.46c-0.613,0.306 -1.129,0.726 -1.548,1.258c-0.419,0.532 -0.734,1.145 -0.943,1.838c-0.21,0.694 -0.315,1.444 -0.315,2.25l0,13.643l-6.29,0l0,-32.512l6.29,0l0,11.805c0.226,-0.516 0.573,-1.008 1.04,-1.475c0.468,-0.468 1.008,-0.863 1.621,-1.186c0.613,-0.322 1.29,-0.58 2.032,-0.774c0.742,-0.193 1.516,-0.29 2.322,-0.29c2.452,0 4.443,0.669 5.975,2.008c1.532,1.338 2.298,3.201 2.298,5.588l0,16.836l-6.337,0Z" style="fill:#020000;fill-rule:nonzero;"/><path d="M74.033,128.098c3.838,0 5.757,-2.419 5.757,-7.257c0,-4.806 -1.919,-7.209 -5.757,-7.209c-3.839,0 -5.758,2.403 -5.758,7.209c0,4.838 1.919,7.257 5.758,7.257Zm0,5.273c-1.936,0 -3.661,-0.306 -5.177,-0.919c-1.516,-0.613 -2.798,-1.467 -3.847,-2.564c-1.048,-1.097 -1.846,-2.419 -2.394,-3.967c-0.549,-1.549 -0.823,-3.242 -0.823,-5.08c0,-1.871 0.282,-3.581 0.847,-5.129c0.564,-1.548 1.379,-2.87 2.443,-3.967c1.064,-1.097 2.346,-1.943 3.846,-2.54c1.5,-0.597 3.202,-0.895 5.105,-0.895c1.87,0 3.547,0.298 5.031,0.895c1.484,0.597 2.75,1.435 3.798,2.516c1.048,1.08 1.855,2.395 2.419,3.943c0.565,1.548 0.847,3.274 0.847,5.177c0,1.903 -0.282,3.62 -0.847,5.152c-0.564,1.532 -1.371,2.847 -2.419,3.943c-1.048,1.097 -2.322,1.944 -3.822,2.54c-1.5,0.597 -3.169,0.895 -5.007,0.895Z" style="fill:#020000;fill-rule:nonzero;"/><path d="M99.384,128.001c3.613,0 5.419,-2.451 5.419,-7.354c0,-2.129 -0.5,-3.862 -1.5,-5.201c-1,-1.338 -2.29,-2.008 -3.87,-2.008c-1.516,0 -2.782,0.629 -3.798,1.887c-1.016,1.258 -1.524,2.903 -1.524,4.935c0,5.161 1.757,7.741 5.273,7.741Zm-11.224,16.014l0,-35.076l6.047,0l0.049,2.903c1.451,-2.355 3.661,-3.532 6.628,-3.532c1.484,0 2.863,0.29 4.137,0.871c1.274,0.58 2.362,1.419 3.265,2.516c0.903,1.096 1.613,2.435 2.129,4.015c0.516,1.581 0.774,3.371 0.774,5.371c0,1.806 -0.218,3.459 -0.653,4.959c-0.435,1.499 -1.072,2.798 -1.911,3.894c-0.839,1.097 -1.863,1.944 -3.072,2.54c-1.21,0.597 -2.589,0.895 -4.137,0.895c-2.935,0 -5.289,-1.241 -7.063,-3.725l0,14.369l-6.193,0Z" style="fill:#020000;fill-rule:nonzero;"/><path d="M124.446,128.001c3.612,0 5.418,-2.451 5.418,-7.354c0,-2.129 -0.5,-3.862 -1.5,-5.201c-0.999,-1.338 -2.29,-2.008 -3.87,-2.008c-1.516,0 -2.782,0.629 -3.798,1.887c-1.016,1.258 -1.524,2.903 -1.524,4.935c0,5.161 1.758,7.741 5.274,7.741Zm-11.225,16.014l0,-35.076l6.048,0l0.048,2.903c1.452,-2.355 3.661,-3.532 6.628,-3.532c1.484,0 2.863,0.29 4.137,0.871c1.274,0.58 2.363,1.419 3.266,2.516c0.903,1.096 1.612,2.435 2.128,4.015c0.517,1.581 0.775,3.371 0.775,5.371c0,1.806 -0.218,3.459 -0.654,4.959c-0.435,1.499 -1.072,2.798 -1.911,3.894c-0.838,1.097 -1.862,1.944 -3.072,2.54c-1.209,0.597 -2.588,0.895 -4.136,0.895c-2.936,0 -5.29,-1.241 -7.064,-3.725l0,14.369l-6.193,0Z" style="fill:#020000;fill-rule:nonzero;"/><path d="M138.428,132.742l0,-23.803l6.289,0l0,23.803l-6.289,0Zm0,-26.658l0,-5.854l6.289,0l0,5.854l-6.289,0Z" style="fill:#020000;fill-rule:nonzero;"/><path d="M162.618,132.742l0,-14.417c0,-1.839 -0.306,-3.08 -0.919,-3.725c-0.613,-0.646 -1.661,-0.968 -3.145,-0.968c-3.257,0 -4.886,1.822 -4.886,5.467l0,13.643l-6.29,0l0,-23.803l5.999,0l0,3.483c0.742,-1.354 1.726,-2.378 2.952,-3.072c1.225,-0.693 2.806,-1.04 4.741,-1.04c1.129,0 2.177,0.169 3.145,0.508c0.967,0.339 1.798,0.847 2.491,1.524c0.694,0.677 1.242,1.508 1.645,2.492c0.404,0.983 0.605,2.12 0.605,3.41l0,16.498l-6.338,0Z" style="fill:#020000;fill-rule:nonzero;"/><path d="M182.89,128.001c1.548,0 2.83,-0.589 3.846,-1.766c1.016,-1.177 1.524,-2.782 1.524,-4.814c0,-5.096 -1.79,-7.644 -5.37,-7.644c-3.58,0 -5.37,2.419 -5.37,7.257c0,2.129 0.508,3.822 1.524,5.08c1.016,1.258 2.298,1.887 3.846,1.887Zm5.177,1.548c-0.452,1.065 -1.266,1.895 -2.444,2.492c-1.177,0.597 -2.54,0.895 -4.088,0.895c-1.967,0 -3.62,-0.347 -4.959,-1.04c-1.338,-0.694 -2.419,-1.605 -3.241,-2.734c-0.823,-1.129 -1.419,-2.435 -1.79,-3.919c-0.371,-1.483 -0.557,-2.999 -0.557,-4.547c0,-1.839 0.274,-3.524 0.823,-5.056c0.548,-1.532 1.29,-2.839 2.225,-3.919c0.936,-1.081 2.032,-1.919 3.29,-2.516c1.258,-0.597 2.613,-0.895 4.064,-0.895c2.968,0 5.193,1.193 6.677,3.58l0,-2.951l6.289,0l0,24.045c0,1.807 -0.306,3.395 -0.919,4.766c-0.613,1.371 -1.451,2.516 -2.516,3.435c-1.064,0.919 -2.322,1.621 -3.774,2.105c-1.451,0.483 -2.999,0.725 -4.644,0.725c-1.645,0 -3.177,-0.234 -4.596,-0.701c-1.419,-0.468 -2.637,-1.129 -3.653,-1.984c-1.016,-0.855 -1.814,-1.895 -2.395,-3.121c-0.581,-1.225 -0.871,-2.612 -0.871,-4.16l5.854,0c0,1.451 0.476,2.572 1.428,3.362c0.951,0.79 2.217,1.186 3.797,1.186c1.678,0 3.097,-0.46 4.258,-1.379c1.161,-0.92 1.742,-2.169 1.742,-3.75l0,-3.919Z" style="fill:#020000;fill-rule:nonzero;"/><path d="M221.788,115.616c1.936,0 3.331,-0.444 4.185,-1.331c0.855,-0.887 1.282,-2.04 1.282,-3.459c0,-1.355 -0.427,-2.468 -1.282,-3.339c-0.854,-0.87 -2.249,-1.306 -4.185,-1.306l-6.386,0l0,9.435l6.386,0Zm-13.111,17.126l0,-32.125l14.176,0c1.58,0 2.999,0.266 4.257,0.799c1.258,0.532 2.339,1.274 3.242,2.225c0.903,0.952 1.596,2.056 2.08,3.314c0.484,1.258 0.726,2.613 0.726,4.064c0,1.452 -0.242,2.798 -0.726,4.04c-0.484,1.242 -1.177,2.306 -2.08,3.193c-0.903,0.887 -1.984,1.581 -3.242,2.081c-1.258,0.5 -2.677,0.75 -4.257,0.75l-7.451,0l0,11.659l-6.725,0Z" style="fill:#020000;fill-rule:nonzero;"/><path d="M248.882,121.083c-0.323,0.322 -0.79,0.58 -1.403,0.774c-0.613,0.193 -1.5,0.403 -2.661,0.629c-1.806,0.354 -3.048,0.806 -3.726,1.354c-0.677,0.549 -1.016,1.339 -1.016,2.371c0,1.774 1.016,2.661 3.048,2.661c0.807,0 1.557,-0.137 2.25,-0.411c0.694,-0.274 1.29,-0.645 1.79,-1.113c0.5,-0.468 0.903,-1.016 1.21,-1.645c0.306,-0.629 0.459,-1.298 0.459,-2.008l0.049,-2.612Zm0.435,11.659c-0.193,-0.612 -0.322,-1.322 -0.387,-2.128c-0.742,0.838 -1.725,1.508 -2.951,2.007c-1.226,0.5 -2.645,0.75 -4.258,0.75c-2.741,0 -4.749,-0.604 -6.023,-1.814c-1.274,-1.209 -1.911,-2.782 -1.911,-4.717c0,-1.71 0.274,-3.072 0.822,-4.088c0.549,-1.016 1.307,-1.815 2.274,-2.395c0.968,-0.581 2.121,-1.008 3.459,-1.282c1.339,-0.274 2.799,-0.524 4.379,-0.75c1.58,-0.226 2.645,-0.524 3.193,-0.895c0.548,-0.371 0.823,-0.976 0.823,-1.814c0,-0.775 -0.363,-1.379 -1.089,-1.815c-0.726,-0.435 -1.701,-0.653 -2.927,-0.653c-1.451,0 -2.492,0.323 -3.121,0.968c-0.629,0.645 -1.024,1.5 -1.185,2.564l-5.854,0c0.032,-1.226 0.234,-2.355 0.605,-3.387c0.371,-1.032 0.967,-1.919 1.79,-2.661c0.822,-0.742 1.895,-1.314 3.217,-1.717c1.323,-0.403 2.935,-0.605 4.838,-0.605c1.871,0 3.46,0.21 4.766,0.629c1.306,0.419 2.354,1.024 3.145,1.814c0.79,0.79 1.362,1.774 1.717,2.951c0.355,1.178 0.532,2.508 0.532,3.992l0,15.046l-5.854,0Z" style="fill:#020000;fill-rule:nonzero;"/><path d="M272.927,132.742l0,-14.417c0,-1.839 -0.306,-3.08 -0.919,-3.725c-0.613,-0.646 -1.661,-0.968 -3.145,-0.968c-3.258,0 -4.886,1.822 -4.886,5.467l0,13.643l-6.29,0l0,-23.803l5.999,0l0,3.483c0.742,-1.354 1.726,-2.378 2.952,-3.072c1.225,-0.693 2.806,-1.04 4.741,-1.04c1.129,0 2.177,0.169 3.145,0.508c0.967,0.339 1.798,0.847 2.491,1.524c0.694,0.677 1.242,1.508 1.645,2.492c0.403,0.983 0.605,2.12 0.605,3.41l0,16.498l-6.338,0Z" style="fill:#020000;fill-rule:nonzero;"/><path d="M293.054,128.243c1.516,0 2.782,-0.629 3.798,-1.887c1.016,-1.258 1.524,-2.903 1.524,-4.935c0,-5.16 -1.758,-7.741 -5.274,-7.741c-3.612,0 -5.419,2.452 -5.419,7.354c0,2.129 0.5,3.863 1.5,5.201c1,1.339 2.29,2.008 3.871,2.008Zm5.225,4.499l-0.049,-2.902c-1.451,2.354 -3.66,3.531 -6.628,3.531c-1.516,0 -2.903,-0.29 -4.161,-0.87c-1.257,-0.581 -2.338,-1.42 -3.241,-2.516c-0.903,-1.097 -1.613,-2.435 -2.129,-4.016c-0.516,-1.58 -0.774,-3.37 -0.774,-5.37c0,-1.806 0.218,-3.459 0.653,-4.959c0.436,-1.5 1.073,-2.798 1.911,-3.895c0.839,-1.097 1.863,-1.943 3.072,-2.54c1.21,-0.597 2.589,-0.895 4.137,-0.895c2.935,0 5.29,1.242 7.064,3.725l0,-11.805l6.192,0l0,32.512l-6.047,0Z" style="fill:#020000;fill-rule:nonzero;"/><path d="M321.308,121.083c-0.322,0.322 -0.79,0.58 -1.403,0.774c-0.613,0.193 -1.5,0.403 -2.661,0.629c-1.806,0.354 -3.048,0.806 -3.725,1.354c-0.677,0.549 -1.016,1.339 -1.016,2.371c0,1.774 1.016,2.661 3.048,2.661c0.806,0 1.556,-0.137 2.25,-0.411c0.693,-0.274 1.29,-0.645 1.79,-1.113c0.5,-0.468 0.903,-1.016 1.209,-1.645c0.307,-0.629 0.46,-1.298 0.46,-2.008l0.048,-2.612Zm0.436,11.659c-0.194,-0.612 -0.323,-1.322 -0.387,-2.128c-0.742,0.838 -1.726,1.508 -2.952,2.007c-1.225,0.5 -2.644,0.75 -4.257,0.75c-2.742,0 -4.75,-0.604 -6.024,-1.814c-1.274,-1.209 -1.911,-2.782 -1.911,-4.717c0,-1.71 0.274,-3.072 0.823,-4.088c0.548,-1.016 1.306,-1.815 2.274,-2.395c0.967,-0.581 2.12,-1.008 3.459,-1.282c1.339,-0.274 2.798,-0.524 4.378,-0.75c1.581,-0.226 2.645,-0.524 3.194,-0.895c0.548,-0.371 0.822,-0.976 0.822,-1.814c0,-0.775 -0.363,-1.379 -1.088,-1.815c-0.726,-0.435 -1.702,-0.653 -2.928,-0.653c-1.451,0 -2.491,0.323 -3.12,0.968c-0.629,0.645 -1.024,1.5 -1.185,2.564l-5.855,0c0.033,-1.226 0.234,-2.355 0.605,-3.387c0.371,-1.032 0.968,-1.919 1.79,-2.661c0.823,-0.742 1.895,-1.314 3.218,-1.717c1.322,-0.403 2.935,-0.605 4.838,-0.605c1.87,0 3.459,0.21 4.765,0.629c1.307,0.419 2.355,1.024 3.145,1.814c0.79,0.79 1.363,1.774 1.718,2.951c0.354,1.178 0.532,2.508 0.532,3.992l0,15.046l-5.854,0Z" style="fill:#020000;fill-rule:nonzero;"/></g><path d="M207.186,21.497c-4.508,-4.509 -11.818,-4.509 -16.326,0c-4.509,4.508 -4.509,11.817 0,16.326c4.508,4.508 11.818,4.508 16.326,0c4.508,-4.509 4.508,-11.818 0,-16.326" style="fill:#020000;fill-rule:nonzero;"/><path d="M136.248,21.497c4.508,-4.509 11.817,-4.509 16.326,0c4.508,4.508 4.508,11.817 0,16.326c-4.509,4.508 -11.818,4.508 -16.326,0c-4.509,-4.509 -4.509,-11.818 0,-16.326" style="fill:#020000;fill-rule:nonzero;"/><path d="M171.717,22.798c30.357,0 47.222,39.409 36.353,54.803c-10.868,15.394 -36.353,15.702 -36.353,15.702c0,0 -25.485,-0.308 -36.354,-15.702c-10.868,-15.394 5.997,-54.803 36.354,-54.803" style="fill:#fefefe;fill-rule:nonzero;"/><path d="M171.717,22.798c0,0.081 -0.823,0.194 -2.374,0.333c-0.389,0.019 -0.818,0.107 -1.293,0.181c-0.474,0.075 -0.992,0.157 -1.553,0.245c-0.559,0.092 -1.149,0.262 -1.786,0.401c-0.318,0.074 -0.646,0.15 -0.983,0.229c-0.335,0.092 -0.674,0.209 -1.025,0.316c-2.811,0.841 -6.151,2.26 -9.611,4.577c-1.747,1.128 -3.473,2.546 -5.212,4.134c-1.725,1.61 -3.392,3.472 -5.006,5.532c-3.161,4.163 -6.014,9.236 -7.876,15.091c-0.922,2.923 -1.588,6.041 -1.809,9.273c-0.036,0.807 -0.112,1.622 -0.075,2.438c0.005,0.409 0.011,0.819 0.016,1.23c0.035,0.408 0.07,0.817 0.106,1.228c0.039,0.828 0.226,1.633 0.347,2.455c0.076,0.407 0.198,0.803 0.295,1.207l0.153,0.605c0.05,0.203 0.135,0.392 0.201,0.589c0.139,0.391 0.279,0.783 0.42,1.176c0.179,0.373 0.359,0.748 0.54,1.123c0.161,0.388 0.399,0.729 0.618,1.082c0.228,0.351 0.42,0.713 0.701,1.05c1.005,1.407 2.219,2.681 3.521,3.882c0.646,0.608 1.353,1.157 2.055,1.717c0.365,0.263 0.731,0.526 1.098,0.79c0.365,0.267 0.758,0.499 1.136,0.751c1.539,0.977 3.168,1.853 4.866,2.63c3.404,1.544 7.068,2.702 10.863,3.544c1.898,0.419 3.831,0.763 5.787,1.021c0.978,0.131 1.962,0.238 2.949,0.327c0.494,0.043 0.989,0.081 1.483,0.111c0.483,0.031 1.013,0.055 1.448,0.065c0.435,-0.01 0.964,-0.034 1.448,-0.065c0.494,-0.03 0.988,-0.068 1.482,-0.112c0.988,-0.088 1.972,-0.195 2.95,-0.326c1.956,-0.258 3.888,-0.602 5.787,-1.021c3.794,-0.842 7.458,-2 10.862,-3.544c1.698,-0.777 3.328,-1.653 4.866,-2.63c0.379,-0.252 0.771,-0.484 1.136,-0.751c0.367,-0.264 0.733,-0.527 1.099,-0.79c0.702,-0.56 1.408,-1.109 2.054,-1.717c1.302,-1.201 2.517,-2.475 3.521,-3.882c0.282,-0.337 0.474,-0.7 0.701,-1.05c0.22,-0.353 0.457,-0.694 0.619,-1.082c0.18,-0.375 0.36,-0.75 0.54,-1.123c0.14,-0.393 0.28,-0.785 0.42,-1.176c0.066,-0.197 0.151,-0.386 0.2,-0.589l0.154,-0.605c0.096,-0.404 0.218,-0.8 0.295,-1.207c0.12,-0.822 0.308,-1.627 0.347,-2.455c0.035,-0.411 0.07,-0.82 0.105,-1.228c0.006,-0.411 0.011,-0.821 0.017,-1.23c0.036,-0.816 -0.04,-1.631 -0.075,-2.438c-0.222,-3.232 -0.887,-6.35 -1.81,-9.274c-1.862,-5.854 -4.714,-10.927 -7.876,-15.09c-1.613,-2.06 -3.281,-3.922 -5.005,-5.532c-1.74,-1.588 -3.465,-3.006 -5.213,-4.134c-3.46,-2.317 -6.799,-3.736 -9.611,-4.577c-0.351,-0.107 -0.69,-0.224 -1.024,-0.316c-0.338,-0.079 -0.665,-0.155 -0.983,-0.229c-0.637,-0.139 -1.227,-0.309 -1.787,-0.401c-0.56,-0.088 -1.078,-0.17 -1.553,-0.245c-0.474,-0.074 -0.904,-0.162 -1.292,-0.181c-1.551,-0.139 -2.374,-0.252 -2.374,-0.333c0,-0.081 0.823,-0.126 2.406,-0.139c0.397,-0.018 0.836,0.033 1.323,0.07c0.488,0.043 1.021,0.09 1.597,0.14c0.577,0.056 1.187,0.193 1.847,0.301c0.329,0.058 0.669,0.119 1.02,0.181c0.347,0.078 0.699,0.18 1.065,0.273c2.925,0.727 6.429,2.065 10.078,4.355c1.842,1.115 3.666,2.532 5.506,4.133c1.825,1.624 3.593,3.512 5.305,5.612c3.358,4.243 6.399,9.442 8.422,15.515c1.001,3.035 1.741,6.29 2.014,9.716c0.048,0.858 0.135,1.72 0.107,2.597c-0.001,0.438 -0.003,0.877 -0.005,1.317c-0.033,0.442 -0.067,0.884 -0.1,1.329c-0.036,0.89 -0.227,1.778 -0.354,2.676c-0.08,0.447 -0.209,0.889 -0.313,1.336l-0.165,0.67c-0.054,0.224 -0.146,0.44 -0.218,0.661c-0.153,0.439 -0.308,0.88 -0.462,1.322c-0.2,0.427 -0.401,0.856 -0.602,1.285c-0.183,0.438 -0.451,0.839 -0.701,1.249c-0.256,0.404 -0.492,0.836 -0.787,1.196c-1.085,1.538 -2.39,2.931 -3.787,4.234c-0.695,0.659 -1.447,1.255 -2.199,1.859c-0.389,0.283 -0.779,0.567 -1.17,0.852c-0.39,0.287 -0.804,0.536 -1.207,0.807c-1.632,1.048 -3.352,1.981 -5.135,2.807c-3.573,1.637 -7.384,2.851 -11.312,3.732c-1.966,0.437 -3.962,0.796 -5.984,1.065c-1.011,0.136 -2.029,0.248 -3.054,0.34c-0.512,0.045 -1.026,0.085 -1.543,0.117c-0.527,0.033 -1.012,0.057 -1.592,0.07c-0.581,-0.013 -1.065,-0.037 -1.593,-0.07c-0.516,-0.032 -1.03,-0.072 -1.543,-0.117c-1.024,-0.092 -2.042,-0.204 -3.053,-0.34c-2.022,-0.269 -4.019,-0.628 -5.984,-1.065c-3.929,-0.881 -7.739,-2.095 -11.313,-3.732c-1.783,-0.826 -3.503,-1.759 -5.135,-2.807c-0.402,-0.271 -0.817,-0.52 -1.206,-0.807c-0.391,-0.285 -0.781,-0.569 -1.171,-0.852c-0.751,-0.604 -1.503,-1.2 -2.198,-1.859c-1.397,-1.303 -2.703,-2.696 -3.788,-4.234c-0.294,-0.36 -0.531,-0.792 -0.787,-1.196c-0.25,-0.41 -0.517,-0.811 -0.7,-1.249c-0.201,-0.429 -0.402,-0.858 -0.602,-1.285c-0.155,-0.442 -0.309,-0.883 -0.463,-1.322c-0.072,-0.221 -0.163,-0.437 -0.217,-0.661l-0.166,-0.67c-0.103,-0.447 -0.232,-0.889 -0.312,-1.336c-0.128,-0.898 -0.318,-1.786 -0.354,-2.676c-0.034,-0.445 -0.067,-0.887 -0.1,-1.329c-0.002,-0.44 -0.004,-0.879 -0.006,-1.317c-0.028,-0.877 0.059,-1.739 0.107,-2.597c0.274,-3.426 1.014,-6.681 2.015,-9.716c2.023,-6.073 5.064,-11.272 8.421,-15.515c1.713,-2.1 3.48,-3.988 5.305,-5.612c1.84,-1.601 3.664,-3.018 5.507,-4.133c3.648,-2.29 7.153,-3.628 10.077,-4.355c0.366,-0.093 0.718,-0.195 1.066,-0.273c0.35,-0.062 0.69,-0.123 1.019,-0.181c0.66,-0.108 1.27,-0.245 1.847,-0.301c0.576,-0.05 1.109,-0.097 1.597,-0.14c0.487,-0.037 0.926,-0.088 1.323,-0.07c1.584,0.013 2.407,0.058 2.407,0.139" style="fill:#020000;fill-rule:nonzero;"/><path d="M167.464,82.847c0,0 -3.387,6.708 4.06,6.708c6.125,0 4.75,-5.213 3.878,-6.564c0,0 -2.661,0.386 -3.818,-1.637c0,0 -2.198,2.6 -4.12,1.493Z" style="fill:#f66d6d;fill-rule:nonzero;stroke:#020000;stroke-width:0.36px;"/><path d="M171.524,74.259c0.124,0 0.236,0.838 0.316,2.193c0.041,0.678 0.074,1.485 0.096,2.381c0.009,0.455 0.017,0.923 0.026,1.405c0.002,0.245 0.005,0.493 0.007,0.744l0.001,0.145l0.001,0.001l0.181,0.225c0.614,0.731 1.401,1.156 2.183,1.2c0.785,0.055 1.52,-0.21 2.1,-0.48c1.167,-0.571 1.797,-1.146 1.89,-1.049c0.082,0.071 -0.389,0.825 -1.585,1.603c-0.598,0.368 -1.416,0.762 -2.438,0.749c-0.505,-0.008 -1.044,-0.135 -1.534,-0.39c-0.492,-0.253 -0.928,-0.623 -1.292,-1.047c-0.101,-0.127 -0.201,-0.252 -0.3,-0.377c-0.03,-0.052 -0.099,-0.093 -0.098,-0.156l0,-0.19l0.001,-0.234c0.002,-0.251 0.005,-0.499 0.007,-0.744c0.009,-0.482 0.017,-0.95 0.026,-1.405c0.022,-0.896 0.055,-1.703 0.096,-2.381c0.081,-1.355 0.193,-2.193 0.316,-2.193" style="fill:#020000;fill-rule:nonzero;"/><path d="M171.524,74.259c0.124,0 0.236,0.842 0.318,2.204c0.041,0.68 0.073,1.491 0.096,2.391c0.009,0.458 0.017,0.929 0.026,1.413c0.003,0.246 0.005,0.495 0.007,0.747l0.001,0.264c-0.009,0.06 0.021,0.134 -0.02,0.184l-0.115,0.15l-0.146,0.192c-0.044,0.055 -0.082,0.112 -0.131,0.164c-0.36,0.43 -0.791,0.808 -1.283,1.069c-0.49,0.263 -1.034,0.396 -1.543,0.404c-1.033,0.01 -1.851,-0.4 -2.446,-0.779c-1.189,-0.802 -1.649,-1.568 -1.564,-1.638c0.094,-0.097 0.718,0.493 1.88,1.086c0.577,0.281 1.313,0.557 2.098,0.504c0.781,-0.044 1.564,-0.482 2.171,-1.226c0.042,-0.042 0.074,-0.094 0.112,-0.14l0.088,-0.115c0.004,-0.004 0.003,-0.002 0.003,-0.002c0,-0.01 0,0.022 0,-0.022l0.001,-0.095c0.002,-0.252 0.004,-0.501 0.007,-0.747c0.009,-0.484 0.018,-0.955 0.026,-1.413c0.023,-0.9 0.055,-1.711 0.096,-2.391c0.082,-1.362 0.194,-2.204 0.318,-2.204" style="fill:#020000;fill-rule:nonzero;"/><path d="M171.524,71.16c-3.383,0 -6.125,1.985 -6.125,4.435c0,2.45 2.742,4.435 6.125,4.435c3.383,0 6.125,-1.985 6.125,-4.435c0,-2.45 -2.742,-4.435 -6.125,-4.435" style="fill:#020000;fill-rule:nonzero;"/><path d="M225.443,99.201c-1.306,3.121 -0.533,6.417 1.727,7.362c2.26,0.946 5.15,-0.817 6.456,-3.938c1.306,-3.121 0.532,-6.417 -1.728,-7.363c-2.259,-0.945 -5.149,0.818 -6.455,3.939" style="fill:#020000;fill-rule:nonzero;"/><path d="M213.763,99.055c1.596,2.982 1.139,6.337 -1.021,7.493c-2.16,1.155 -5.204,-0.326 -6.8,-3.308c-1.596,-2.983 -1.139,-6.338 1.021,-7.493c2.159,-1.156 5.204,0.325 6.8,3.308" style="fill:#020000;fill-rule:nonzero;"/><path d="M197.523,66.883c0,-4.929 -3.996,-8.926 -8.926,-8.926c-4.93,0 -8.926,3.997 -8.926,8.926c0,4.93 3.996,8.927 8.926,8.927c4.93,0 8.926,-3.997 8.926,-8.927" style="fill:#020000;fill-rule:nonzero;"/><path d="M188.924,62.58c0,-1.53 -1.241,-2.77 -2.771,-2.77c-1.53,0 -2.77,1.24 -2.77,2.77c0,1.53 1.24,2.77 2.77,2.77c1.53,0 2.771,-1.24 2.771,-2.77" style="fill:#fefefe;fill-rule:nonzero;"/><path d="M145.91,66.883c0,-4.929 3.996,-8.926 8.927,-8.926c4.929,0 8.926,3.997 8.926,8.926c0,4.93 -3.997,8.927 -8.926,8.927c-4.931,0 -8.927,-3.997 -8.927,-8.927" style="fill:#020000;fill-rule:nonzero;"/><path d="M154.509,62.58c0,-1.53 1.241,-2.77 2.771,-2.77c1.53,0 2.77,1.24 2.77,2.77c0,1.53 -1.24,2.77 -2.77,2.77c-1.53,0 -2.771,-1.24 -2.771,-2.77" style="fill:#fefefe;fill-rule:nonzero;"/></svg>